#Comment line ignore any data following # character 
#Hierarchical Translation and Rotation (.htr) file 
[Header]	
#Header keywords are followed by a single value 
FileType HTR		#Single word string
DataType HTRS		#Translation followed by rotation and scale data
FileVersion 1		#integer
NumSegments 84		#integer
NumFrames 2		#integer
DataFrameRate 30		#integer, data frame rate in this file
EulerRotationOrder ZYX
CalibrationUnits mm
RotationUnits Degrees
GlobalAxisofGravity Y
BoneLengthAxis Y
ScaleFactor 1.00
[SegmentNames&Hierarchy]
#CHILD	PARENT
MASTER GLOBAL
root MASTER
chest root
L_mid_tent01 root
R_mid_tent01 root
spine01 root
Bip01_Neck chest
L_humerus chest
R_humerus chest
weapon_bone chest
Bip01_Head Bip01_Neck
eye_left_bone Bip01_Head
eye_right_bone Bip01_Head
L_forearm L_humerus
L_front_hand L_forearm
L_weapon_bone L_forearm
L_front_hand01_01 L_front_hand
L_front_hand02_01 L_front_hand
L_front_hand03_01 L_front_hand
L_front_hand01_02 L_front_hand01_01
L_front_hand02_02 L_front_hand02_01
L_front_hand03_02 L_front_hand03_01
R_forearm R_humerus
R_front_hand R_forearm
R_weapon_bone R_forearm
R_front_hand01_01 R_front_hand
R_front_hand02_01 R_front_hand
R_front_hand03_01 R_front_hand
R_front_hand01_02 R_front_hand01_01
R_front_hand02_02 R_front_hand02_01
R_front_hand03_02 R_front_hand03_01
null_rope01_connect L_mid_tent01
Rope1_Seg01 null_rope01_connect
Rope1_Seg02 Rope1_Seg01
Rope1_Seg03 Rope1_Seg02
Rope1_Seg04 Rope1_Seg03
Rope1_Seg05 Rope1_Seg04
Rope1_Seg06 Rope1_Seg05
Rope1_Seg07 Rope1_Seg06
Rope1_Seg09 Rope1_Seg07
L_mid_hand01 Rope1_Seg09
L_mid_hand02 Rope1_Seg09
L_mid_hand03 Rope1_Seg09
null_rope02_connect R_mid_tent01
Rope2_Seg01 null_rope02_connect
Rope2_Seg02 Rope2_Seg01
Rope2_Seg03 Rope2_Seg02
Rope2_Seg04 Rope2_Seg03
Rope2_Seg05 Rope2_Seg04
Rope2_Seg06 Rope2_Seg05
Rope2_Seg07 Rope2_Seg06
Rope2_Seg09 Rope2_Seg07
R_mid_hand01 Rope2_Seg09
R_mid_hand02 Rope2_Seg09
R_mid_hand03 Rope2_Seg09
spine02 spine01
spine03 spine02
pelvis spine03
null_rope03_connect pelvis
null_rope04_connect pelvis
Rope3_Seg01 null_rope03_connect
Rope3_Seg02 Rope3_Seg01
Rope3_Seg03 Rope3_Seg02
Rope3_Seg04 Rope3_Seg03
Rope3_Seg05 Rope3_Seg04
Rope3_Seg06 Rope3_Seg05
Rope3_Seg07 Rope3_Seg06
Rope3_Seg08 Rope3_Seg07
Rope3_Seg09 Rope3_Seg08
R_rear_hand01 Rope3_Seg09
R_rear_hand02 Rope3_Seg09
R_rear_hand03 Rope3_Seg09
Rope4_Seg01 null_rope04_connect
Rope4_Seg02 Rope4_Seg01
Rope4_Seg03 Rope4_Seg02
Rope4_Seg04 Rope4_Seg03
Rope4_Seg05 Rope4_Seg04
Rope4_Seg06 Rope4_Seg05
Rope4_Seg07 Rope4_Seg06
Rope4_Seg08 Rope4_Seg07
Rope4_Seg09 Rope4_Seg08
L_rear_hand01 Rope4_Seg09
L_rear_hand02 Rope4_Seg09
L_rear_hand03 Rope4_Seg09
[BasePosition]
#SegmentName Tx, Ty, Tz, Rx, Ry, Rz, BoneLength
MASTER 0.000000 0.000000 0.000000 -90.000000 0.000000 0.000000 10.000000 
root 0.000000 0.000000 0.000000 0.000000 0.000000 0.000000 10.000000 
chest 0.000000 0.000000 0.000000 0.000000 0.000000 0.000000 10.000000 
L_mid_tent01 0.000000 0.000000 0.000000 0.000000 0.000000 0.000000 10.000000 
R_mid_tent01 0.000000 0.000000 0.000000 0.000000 0.000000 0.000000 10.000000 
spine01 0.000000 0.000000 0.000000 0.000000 0.000000 0.000000 10.000000 
Bip01_Neck 0.000000 0.000000 0.000000 0.000000 0.000000 0.000000 10.000000 
L_humerus 0.000000 0.000000 0.000000 0.000000 0.000000 0.000000 10.000000 
R_humerus 0.000000 0.000000 0.000000 0.000000 0.000000 0.000000 10.000000 
weapon_bone 0.000000 0.000000 0.000000 0.000000 0.000000 0.000000 10.000000 
Bip01_Head 0.000000 0.000000 0.000000 0.000000 0.000000 0.000000 10.000000 
eye_left_bone 0.000000 0.000000 0.000000 0.000000 0.000000 0.000000 10.000000 
eye_right_bone 0.000000 0.000000 0.000000 0.000000 0.000000 0.000000 10.000000 
L_forearm 0.000000 0.000000 0.000000 0.000000 0.000000 0.000000 10.000000 
L_front_hand 0.000000 0.000000 0.000000 0.000000 0.000000 0.000000 10.000000 
L_weapon_bone 0.000000 0.000000 0.000000 0.000000 0.000000 0.000000 10.000000 
L_front_hand01_01 0.000000 0.000000 0.000000 0.000000 0.000000 0.000000 10.000000 
L_front_hand02_01 0.000000 0.000000 0.000000 0.000000 0.000000 0.000000 10.000000 
L_front_hand03_01 0.000000 0.000000 0.000000 0.000000 0.000000 0.000000 10.000000 
L_front_hand01_02 0.000000 0.000000 0.000000 0.000000 0.000000 0.000000 10.000000 
L_front_hand02_02 0.000000 0.000000 0.000000 0.000000 0.000000 0.000000 10.000000 
L_front_hand03_02 0.000000 0.000000 0.000000 0.000000 0.000000 0.000000 10.000000 
R_forearm 0.000000 0.000000 0.000000 0.000000 0.000000 0.000000 10.000000 
R_front_hand 0.000000 0.000000 0.000000 0.000000 0.000000 0.000000 10.000000 
R_weapon_bone 0.000000 0.000000 0.000000 0.000000 0.000000 0.000000 10.000000 
R_front_hand01_01 0.000000 0.000000 0.000000 0.000000 0.000000 0.000000 10.000000 
R_front_hand02_01 0.000000 0.000000 0.000000 0.000000 0.000000 0.000000 10.000000 
R_front_hand03_01 0.000000 0.000000 0.000000 0.000000 0.000000 0.000000 10.000000 
R_front_hand01_02 0.000000 0.000000 0.000000 0.000000 0.000000 0.000000 10.000000 
R_front_hand02_02 0.000000 0.000000 0.000000 0.000000 0.000000 0.000000 10.000000 
R_front_hand03_02 0.000000 0.000000 0.000000 0.000000 0.000000 0.000000 10.000000 
null_rope01_connect 0.000000 0.000000 0.000000 0.000000 0.000000 0.000000 10.000000 
Rope1_Seg01 0.000000 0.000000 0.000000 0.000000 0.000000 0.000000 10.000000 
Rope1_Seg02 0.000000 0.000000 0.000000 0.000000 0.000000 0.000000 10.000000 
Rope1_Seg03 0.000000 0.000000 0.000000 0.000000 0.000000 0.000000 10.000000 
Rope1_Seg04 0.000000 0.000000 0.000000 0.000000 0.000000 0.000000 10.000000 
Rope1_Seg05 0.000000 0.000000 0.000000 0.000000 0.000000 0.000000 10.000000 
Rope1_Seg06 0.000000 0.000000 0.000000 0.000000 0.000000 0.000000 10.000000 
Rope1_Seg07 0.000000 0.000000 0.000000 0.000000 0.000000 0.000000 10.000000 
Rope1_Seg09 0.000000 0.000000 0.000000 0.000000 0.000000 0.000000 10.000000 
L_mid_hand01 0.000000 0.000000 0.000000 0.000000 0.000000 0.000000 10.000000 
L_mid_hand02 0.000000 0.000000 0.000000 0.000000 0.000000 0.000000 10.000000 
L_mid_hand03 0.000000 0.000000 0.000000 0.000000 0.000000 0.000000 10.000000 
null_rope02_connect 0.000000 0.000000 0.000000 0.000000 0.000000 0.000000 10.000000 
Rope2_Seg01 0.000000 0.000000 0.000000 0.000000 0.000000 0.000000 10.000000 
Rope2_Seg02 0.000000 0.000000 0.000000 0.000000 0.000000 0.000000 10.000000 
Rope2_Seg03 0.000000 0.000000 0.000000 0.000000 0.000000 0.000000 10.000000 
Rope2_Seg04 0.000000 0.000000 0.000000 0.000000 0.000000 0.000000 10.000000 
Rope2_Seg05 0.000000 0.000000 0.000000 0.000000 0.000000 0.000000 10.000000 
Rope2_Seg06 0.000000 0.000000 0.000000 0.000000 0.000000 0.000000 10.000000 
Rope2_Seg07 0.000000 0.000000 0.000000 0.000000 0.000000 0.000000 10.000000 
Rope2_Seg09 0.000000 0.000000 0.000000 0.000000 0.000000 0.000000 10.000000 
R_mid_hand01 0.000000 0.000000 0.000000 0.000000 0.000000 0.000000 10.000000 
R_mid_hand02 0.000000 0.000000 0.000000 0.000000 0.000000 0.000000 10.000000 
R_mid_hand03 0.000000 0.000000 0.000000 0.000000 0.000000 0.000000 10.000000 
spine02 0.000000 0.000000 0.000000 0.000000 0.000000 0.000000 10.000000 
spine03 0.000000 0.000000 0.000000 0.000000 0.000000 0.000000 10.000000 
pelvis 0.000000 0.000000 0.000000 0.000000 0.000000 0.000000 10.000000 
null_rope03_connect 0.000000 0.000000 0.000000 0.000000 0.000000 0.000000 10.000000 
null_rope04_connect 0.000000 0.000000 0.000000 0.000000 0.000000 0.000000 10.000000 
Rope3_Seg01 0.000000 0.000000 0.000000 0.000000 0.000000 0.000000 10.000000 
Rope3_Seg02 0.000000 0.000000 0.000000 0.000000 0.000000 0.000000 10.000000 
Rope3_Seg03 0.000000 0.000000 0.000000 0.000000 0.000000 0.000000 10.000000 
Rope3_Seg04 0.000000 0.000000 0.000000 0.000000 0.000000 0.000000 10.000000 
Rope3_Seg05 0.000000 0.000000 0.000000 0.000000 0.000000 0.000000 10.000000 
Rope3_Seg06 0.000000 0.000000 0.000000 0.000000 0.000000 0.000000 10.000000 
Rope3_Seg07 0.000000 0.000000 0.000000 0.000000 0.000000 0.000000 10.000000 
Rope3_Seg08 0.000000 0.000000 0.000000 0.000000 0.000000 0.000000 10.000000 
Rope3_Seg09 0.000000 0.000000 0.000000 0.000000 0.000000 0.000000 10.000000 
R_rear_hand01 0.000000 0.000000 0.000000 0.000000 0.000000 0.000000 10.000000 
R_rear_hand02 0.000000 0.000000 0.000000 0.000000 0.000000 0.000000 10.000000 
R_rear_hand03 0.000000 0.000000 0.000000 0.000000 0.000000 0.000000 10.000000 
Rope4_Seg01 0.000000 0.000000 0.000000 0.000000 0.000000 0.000000 10.000000 
Rope4_Seg02 0.000000 0.000000 0.000000 0.000000 0.000000 0.000000 10.000000 
Rope4_Seg03 0.000000 0.000000 0.000000 0.000000 0.000000 0.000000 10.000000 
Rope4_Seg04 0.000000 0.000000 0.000000 0.000000 0.000000 0.000000 10.000000 
Rope4_Seg05 0.000000 0.000000 0.000000 0.000000 0.000000 0.000000 10.000000 
Rope4_Seg06 0.000000 0.000000 0.000000 0.000000 0.000000 0.000000 10.000000 
Rope4_Seg07 0.000000 0.000000 0.000000 0.000000 0.000000 0.000000 10.000000 
Rope4_Seg08 0.000000 0.000000 0.000000 0.000000 0.000000 0.000000 10.000000 
Rope4_Seg09 0.000000 0.000000 0.000000 0.000000 0.000000 0.000000 10.000000 
L_rear_hand01 0.000000 0.000000 0.000000 0.000000 0.000000 0.000000 10.000000 
L_rear_hand02 0.000000 0.000000 0.000000 0.000000 0.000000 0.000000 10.000000 
L_rear_hand03 0.000000 0.000000 0.000000 0.000000 0.000000 0.000000 10.000000 
#Beginning of Data. Separated by tabs
#Fr	Tx	Ty	Tz	Rx	Ry	Rz	SF
[MASTER]
10 0.000000 0.000000 0.000000 0.001660 0.001660 0.001660 0.000000
11 0.000000 0.000000 0.000000 0.001660 0.001660 0.001660 0.000000
[root]
10 -54.953140 222.526489 1569.906006 -75.339500 -13.985382 -50.095558 1586.550537
11 -48.179096 183.616440 1573.738892 -78.821190 -13.370380 -47.481472 1585.146851
[chest]
10 -84.512650 -34.090519 0.000000 5.215698 -3.363113 -178.713547 91.129311
11 -84.512650 -34.090519 0.000000 5.037715 -3.252316 -179.040344 91.129311
[L_mid_tent01]
10 27.299099 22.179213 -249.918808 -30.954336 4.617692 17.994791 252.381790
11 27.299099 22.179209 -249.918808 -30.796865 8.200031 14.583814 252.381790
[R_mid_tent01]
10 23.228794 24.509907 226.238495 74.190651 -65.023354 -179.332993 228.744751
11 23.228794 24.509907 226.238495 83.696419 -45.632046 169.341248 228.744751
[spine01]
10 -0.361383 -0.195265 0.000000 -0.087312 -0.041301 22.717377 0.410763
11 -0.361383 -0.195265 0.000000 -0.087314 -0.041297 22.722422 0.410763
[Bip01_Neck]
10 165.484543 71.581718 0.000119 175.896118 1.177290 24.871183 180.302734
11 165.484543 71.581718 0.000119 175.896118 1.177290 24.871181 180.302734
[L_humerus]
10 -13.983130 -135.272980 -120.471481 -4.796322 64.508858 85.248894 181.680161
11 -13.983130 -135.272980 -120.471481 -4.786205 64.476051 85.261414 181.680161
[R_humerus]
10 -13.983309 -135.273102 125.287651 89.078499 -14.681070 -3.931299 184.909012
11 -13.983309 -135.273102 125.287651 88.296913 -11.785505 -2.371225 184.909012
[weapon_bone]
10 235.964890 -300.705902 0.000000 0.000000 -89.951546 -128.212341 382.234833
11 235.964890 -300.705902 0.000000 0.000000 -89.951546 -128.212341 382.234833
[Bip01_Head]
10 245.098068 167.689758 -8.890469 -32.749275 5.844895 -62.457764 297.105988
11 243.885254 172.071045 -9.113708 -37.308090 5.844813 -62.457417 298.615997
[eye_left_bone]
10 1.743546 119.972069 -57.377689 0.000000 -90.000000 -99.840431 132.998245
11 1.873283 119.945107 -57.341438 0.000000 -90.000000 -99.840431 132.960068
[eye_right_bone]
10 1.748733 119.969963 71.722816 0.000000 -89.965736 80.156380 139.785599
11 1.878548 119.942879 71.759102 0.000000 -89.980217 80.156380 139.782654
[L_forearm]
10 322.776093 0.000000 -0.000119 0.000432 -0.002307 -111.227692 322.776093
11 322.776093 0.000000 -0.000119 0.000433 -0.002307 -111.239677 322.776093
[L_front_hand]
10 241.149185 -0.042021 -3.300071 -178.667953 -1.835447 -27.422350 241.171753
11 241.149185 -0.042021 -3.300071 -178.667953 -1.835447 -27.422350 241.171753
[L_weapon_bone]
10 156.183838 0.000000 0.000000 0.000014 0.000007 0.000001 156.183838
11 156.183838 0.000000 0.000000 0.000014 0.000007 0.000001 156.183838
[L_front_hand01_01]
10 86.095154 20.947098 -0.655860 -0.366594 -0.477154 75.385574 88.609184
11 86.095154 20.947098 -0.655860 -0.366594 -0.477154 75.385574 88.609184
[L_front_hand02_01]
10 86.935165 -11.437475 24.513514 154.403519 -59.888931 -61.371990 91.046425
11 86.935165 -11.437475 24.513514 154.403519 -59.888931 -61.371990 91.046425
[L_front_hand03_01]
10 86.637497 -14.123976 -20.424902 -153.913849 58.118122 -62.702866 90.126129
11 86.637497 -14.123976 -20.424902 -153.913849 58.118122 -62.702850 90.126129
[L_front_hand01_02]
10 71.020905 -0.000179 0.000030 0.000334 -0.002323 -106.379684 71.020905
11 71.020905 -0.000179 0.000030 0.000334 -0.002323 -106.379684 71.020905
[L_front_hand02_02]
10 71.020927 -0.000119 0.000060 0.000334 -0.002323 -106.379684 71.020927
11 71.020927 -0.000119 0.000060 0.000334 -0.002323 -106.379684 71.020927
[L_front_hand03_02]
10 71.020905 -0.000060 0.000060 0.000334 -0.002323 -106.379684 71.020905
11 71.020905 -0.000060 0.000060 0.000334 -0.002323 -106.379684 71.020905
[R_forearm]
10 322.776428 -0.000060 0.000030 -0.020765 -0.210394 4.127301 322.776428
11 322.776428 -0.000060 0.000030 -0.024824 -0.209954 6.340374 322.776428
[R_front_hand]
10 238.847015 -0.006795 2.210259 47.581367 -0.318849 -1.933286 238.857239
11 238.847015 -0.006795 2.210259 117.548103 -0.706045 -4.997081 238.857239
[R_weapon_bone]
10 155.664093 0.002503 -0.000030 0.003487 0.001180 -90.988930 155.664078
11 155.664093 0.002503 -0.000030 0.003487 0.001180 -90.988930 155.664078
[R_front_hand01_01]
10 87.624611 14.231146 22.918642 -116.960213 3.496675 -1.324139 91.683487
11 87.624611 14.231146 22.918642 -116.960213 3.496675 -1.324139 91.683487
[R_front_hand02_01]
10 89.356956 14.367283 -19.491137 118.419647 -4.257089 0.609827 92.579636
11 89.356956 14.367283 -19.491137 118.419647 -4.257089 0.609827 92.579636
[R_front_hand03_01]
10 87.286232 -22.307278 -0.143439 -0.387970 -0.231462 4.232001 90.091743
11 87.286232 -22.307278 -0.143439 -0.387970 -0.231462 4.232001 90.091743
[R_front_hand01_02]
10 71.020905 0.000060 0.000119 0.001777 0.001534 8.377220 71.020905
11 71.020905 0.000060 0.000119 0.001777 0.001534 8.377221 71.020905
[R_front_hand02_02]
10 71.020844 -0.000030 -0.000119 0.001777 0.001534 8.377220 71.020836
11 71.020844 -0.000030 -0.000119 0.001777 0.001534 8.377221 71.020836
[R_front_hand03_02]
10 71.020905 0.000000 0.000030 0.001777 0.001534 8.377220 71.020905
11 71.020905 0.000000 0.000030 0.001777 0.001534 8.377221 71.020905
[null_rope01_connect]
10 328.732483 0.000000 -0.000238 114.808365 -45.926250 -23.154182 328.732483
11 328.732483 0.000000 -0.000238 120.691780 -47.569527 -26.298800 328.732483
[Rope1_Seg01]
10 -0.000004 -0.000058 0.000046 9.589447 7.856996 -105.303642 0.000074
11 0.000000 -0.000057 0.000051 9.023541 -3.197774 -95.710747 0.000077
[Rope1_Seg02]
10 139.999863 -0.000179 0.000000 51.105061 6.761501 -17.002127 139.999863
11 139.999863 -0.000179 0.000000 15.014269 6.314001 -16.714569 139.999863
[Rope1_Seg03]
10 139.999924 0.000060 -0.000060 93.863319 -13.475028 -23.914562 139.999924
11 139.999924 0.000060 -0.000060 98.538002 2.253909 -29.754305 139.999924
[Rope1_Seg04]
10 139.999924 -0.000060 -0.000119 4.230819 -17.337868 11.785995 139.999924
11 139.999924 -0.000060 -0.000119 22.239889 -23.309998 2.644615 139.999924
[Rope1_Seg05]
10 139.999832 0.000119 -0.000060 1.553099 -14.946740 10.213305 139.999832
11 139.999832 0.000119 -0.000060 5.368948 -17.632427 7.839255 139.999832
[Rope1_Seg06]
10 139.999954 0.000119 -0.000060 -1.039672 -20.337561 14.202116 139.999954
11 139.999954 0.000119 -0.000060 0.258904 -26.008602 14.339436 139.999954
[Rope1_Seg07]
10 139.999985 0.000060 0.000000 -1.328564 -12.490457 9.217002 139.999985
11 139.999985 0.000060 0.000000 -1.566772 -15.325358 9.625564 139.999985
[Rope1_Seg09]
10 121.602913 0.000119 -0.000089 -89.793175 -1.359789 0.847147 121.602913
11 121.602913 0.000119 -0.000089 -89.793175 -1.359789 0.847147 121.602913
[L_mid_hand01]
10 103.859421 1.038730 8.195221 114.520287 -53.310486 -20.623234 104.187431
11 103.859421 1.038730 8.195221 114.520294 -53.310486 -20.623238 104.187431
[L_mid_hand02]
10 105.572853 -4.139662 -10.864139 -155.067673 38.166626 -52.448818 106.211075
11 105.572853 -4.139662 -10.864139 -155.067673 38.166626 -52.448818 106.211075
[L_mid_hand03]
10 104.641464 17.579376 -3.913581 -10.970130 15.317461 57.626949 106.179977
11 104.641464 17.579376 -3.913581 -10.970131 15.317461 57.626949 106.179977
[null_rope02_connect]
10 328.732849 0.000179 -0.000119 -172.020554 -34.033432 63.276573 328.732849
11 328.732849 0.000179 -0.000119 -168.703049 -30.656546 84.553459 328.732849
[Rope2_Seg01]
10 0.000095 0.000153 0.000023 34.411476 -28.914513 -50.590862 0.000181
11 0.000095 0.000153 0.000025 1.318012 -36.348820 -22.037363 0.000182
[Rope2_Seg02]
10 139.999741 -0.000060 -0.000119 -2.817679 -0.795446 4.019451 139.999756
11 139.999741 -0.000060 -0.000119 -6.959360 -5.008574 17.330610 139.999756
[Rope2_Seg03]
10 140.000107 0.000030 0.000000 -4.450761 -1.843022 7.404373 140.000107
11 140.000107 0.000030 0.000000 -7.265761 -17.143528 39.132813 140.000107
[Rope2_Seg04]
10 139.999802 0.000000 -0.000060 -8.503390 -6.897216 20.247080 139.999802
11 139.999802 0.000000 -0.000060 8.507736 -13.861407 31.009121 139.999802
[Rope2_Seg05]
10 139.999985 -0.000060 0.000119 -8.904296 -23.492170 49.562561 139.999985
11 139.999985 -0.000060 0.000119 17.101732 5.758580 19.619644 139.999985
[Rope2_Seg06]
10 139.999893 -0.000030 -0.000119 16.480780 -8.385766 30.805929 139.999893
11 139.999893 -0.000030 -0.000119 10.658357 8.233631 11.583480 139.999893
[Rope2_Seg07]
10 139.999893 0.000060 -0.000060 32.260269 8.695784 32.988575 139.999893
11 139.999893 0.000060 -0.000060 4.626425 4.527516 5.640597 139.999893
[Rope2_Seg09]
10 121.338966 0.000089 -0.000060 0.212083 0.548521 -1.505822 121.338966
11 121.338966 0.000089 -0.000060 82.988068 0.547565 -1.506202 121.338966
[R_mid_hand01]
10 104.680779 11.144459 -10.335981 -47.384243 2.963521 5.452602 105.778534
11 104.680779 11.144459 -10.335981 -47.384258 2.963522 5.452604 105.778534
[R_mid_hand02]
10 104.070427 2.443552 8.231699 75.626297 -2.250001 1.111093 104.424065
11 104.070427 2.443552 8.231699 75.626297 -2.250001 1.111093 104.424065
[R_mid_hand03]
10 106.028137 -11.221827 -5.996406 -164.381927 2.495983 -6.140520 106.788818
11 106.028137 -11.221827 -5.996406 -164.381912 2.495983 -6.140520 106.788818
[spine02]
10 129.756927 0.001550 0.000119 -0.320357 -14.522521 -3.891991 129.756927
11 129.756927 0.001550 0.000119 -0.374984 -14.886209 -3.571038 129.756927
[spine03]
10 78.614044 0.081589 -4.899016 2.038481 3.758023 18.659761 78.766579
11 78.614044 0.081584 -4.899015 2.044028 3.756863 18.679991 78.766579
[pelvis]
10 169.435242 0.051022 0.000000 -0.063040 -0.179341 15.728944 169.435257
11 169.435242 0.051022 0.000000 -0.063055 -0.179335 15.738928 169.435257
[null_rope03_connect]
10 -1.257226 -2.466202 137.391083 71.578461 -34.202362 -25.408588 137.418976
11 -1.257226 -2.466202 137.391083 75.610992 -32.956066 -29.786797 137.418976
[null_rope04_connect]
10 -1.259640 -2.480268 -137.844437 71.578461 -34.202362 -25.408588 137.872513
11 -1.259640 -2.480268 -137.844437 75.610992 -32.956066 -29.786797 137.872513
[Rope3_Seg01]
10 0.000000 0.000000 0.000000 -150.187271 -49.606525 -59.032841 0.000000
11 0.000000 0.000000 0.000000 -146.459747 -46.555309 -62.246056 0.000000
[Rope3_Seg02]
10 139.999924 -0.000119 0.000060 -1.339688 2.163452 -2.126188 139.999924
11 139.999924 -0.000119 0.000060 -1.080540 1.692026 -2.260127 139.999924
[Rope3_Seg03]
10 139.999924 -0.000119 0.000119 -2.072693 3.208318 -3.020833 139.999924
11 139.999924 -0.000119 0.000119 -1.700323 2.478184 -3.182055 139.999924
[Rope3_Seg04]
10 139.999924 0.000119 0.000000 -3.650035 5.317042 -4.676746 139.999924
11 139.999924 0.000119 0.000000 -3.063323 4.026442 -4.889623 139.999924
[Rope3_Seg05]
10 139.999924 -0.000238 0.000060 -6.791319 10.092565 -7.576005 139.999924
11 139.999924 -0.000238 0.000060 -6.049697 7.515569 -8.259000 139.999924
[Rope3_Seg06]
10 139.999893 -0.000119 -0.000060 -11.716739 19.000681 -11.527733 139.999893
11 139.999893 -0.000119 -0.000060 -11.856472 14.222486 -12.990875 139.999893
[Rope3_Seg07]
10 139.999771 0.000060 -0.000119 -21.032282 39.707146 -22.226055 139.999771
11 139.999771 0.000060 -0.000119 -25.443213 32.422062 -23.535744 139.999771
[Rope3_Seg08]
10 139.999985 -0.000060 0.000000 -3.476875 30.034504 -7.486866 139.999985
11 139.999985 -0.000060 0.000000 -10.362348 33.338787 -9.496225 139.999985
[Rope3_Seg09]
10 90.185997 -0.000179 -0.000060 72.118141 -1.358062 -0.846086 90.185997
11 90.185997 -0.000179 -0.000060 71.611137 -1.358898 -0.844080 90.185997
[R_rear_hand01]
10 103.366196 -6.073594 -10.757982 -173.719330 23.898943 -64.208557 104.101845
11 103.366196 -6.073594 -10.757982 -176.613388 24.447432 -71.266006 104.101845
[R_rear_hand02]
10 100.509819 12.039542 -7.992327 -19.009048 34.423050 61.661335 101.543350
11 100.509819 12.039542 -7.992327 -14.613222 36.296520 69.251976 101.543350
[R_rear_hand03]
10 101.539970 5.215704 5.435467 77.282021 -63.257477 15.261508 101.819031
11 101.539970 5.215704 5.435467 73.547058 -69.515656 19.328230 101.819031
[Rope4_Seg01]
10 -0.000016 -0.000053 -0.000153 37.438339 -21.297976 -76.636063 0.000162
11 -0.000016 -0.000051 -0.000153 33.548565 -20.695644 -68.703697 0.000162
[Rope4_Seg02]
10 139.999985 0.000060 0.000119 0.046234 -3.153755 -1.439391 139.999985
11 139.999985 0.000060 0.000119 -0.185663 -4.255097 -1.352475 139.999985
[Rope4_Seg03]
10 139.999924 0.000000 -0.000238 0.099552 -4.558411 -2.086200 139.999924
11 139.999924 0.000000 -0.000238 -0.124113 -6.013076 -1.943198 139.999924
[Rope4_Seg04]
10 139.999985 0.000000 0.000119 0.250055 -7.214675 -3.309971 139.999985
11 139.999985 0.000000 0.000119 0.088468 -8.949930 -2.947345 139.999985
[Rope4_Seg05]
10 139.999802 -0.000060 -0.000119 0.974315 -14.084165 -5.607565 139.999802
11 139.999802 -0.000060 -0.000119 0.897581 -15.223866 -4.310648 139.999802
[Rope4_Seg06]
10 139.999924 0.000000 0.000060 3.497708 -22.056158 -7.974369 139.999924
11 139.999924 0.000000 0.000060 2.397166 -17.288961 -4.426576 139.999924
[Rope4_Seg07]
10 139.999802 0.000000 0.000000 -0.978859 -23.351442 -15.383984 139.999802
11 139.999802 0.000000 0.000000 2.258158 -15.808978 -6.662610 139.999802
[Rope4_Seg08]
10 139.999924 0.000000 0.000119 -129.751663 -26.589046 -30.456251 139.999924
11 139.999924 0.000000 0.000119 -6.753448 -28.918110 -18.604771 139.999924
[Rope4_Seg09]
10 90.185791 0.000060 0.000060 -135.617828 2.228885 0.850567 90.185791
11 90.185791 0.000060 0.000060 -135.617828 2.228885 0.850567 90.185791
[L_rear_hand01]
10 101.696655 -8.392275 -7.654577 -19.915020 -33.950905 119.950104 102.329041
11 101.696655 -8.392275 -7.654577 -19.915020 -33.950905 119.950104 102.329041
[L_rear_hand02]
10 102.726799 -1.568258 5.773216 77.862221 61.878510 165.399200 102.900848
11 102.726799 -1.568258 5.773216 77.862228 61.878525 165.399200 102.900848
[L_rear_hand03]
10 104.552910 9.721220 -10.420293 -173.099182 -23.740307 -117.327896 105.519653
11 104.552910 9.721220 -10.420293 -173.099182 -23.740307 -117.327896 105.519653
